<svg xmlns="http://www.w3.org/2000/svg" viewBox="586 799 741 273" width="741" height="273"><defs><marker orient="auto" overflow="visible" markerUnits="strokeWidth" id="b" stroke-linejoin="miter" stroke-miterlimit="10" viewBox="-1 -3 7 6" markerWidth="7" markerHeight="6" color="#000"><path d="M4.8 0L0-1.8v3.6z" fill="currentColor" stroke="currentColor"/></marker><filter id="a" filterUnits="userSpaceOnUse" x="511.9" y="771.7"><feGaussianBlur in="SourceAlpha" result="blur" stdDeviation="5.232"/><feOffset in="blur" result="offset" dy="1"/><feFlood flood-color="#000" flood-opacity=".5" result="flood"/><feComposite in="flood" in2="offset" operator="in"/></filter></defs><g fill="none"><g filter="url(#a)"><path d="M1261.042 895.35v-45.2c0-3.119 11.648-5.65 26-5.65 14.351 0 26 2.531 26 5.65v45.2c0 3.119-11.649 5.65-26 5.65-14.352 0-26-2.531-26-5.65" fill="#fff"/><path d="M1261.04 895.638l.158-46.067c-.046-2.313 11.148-5.847 25.843-5.071 13.109-.769 25.896 2.516 26 5.65m-.002-.853l.124 46.146c-.375 3.035-12.083 4.47-26.121 5.557-15.716-.046-25.713-2.29-26-5.65m0-45.2c.152 3.316 10.234 5.956 26 5.65 14.298.475 25.81-2.397 26-5.65m-51.968 45.362l.165-45.419c.163-3.085 11.357-6.619 26.053-5.843 13.108-.769 25.895 2.516 26 5.65m-.11-.728l.144 45.837c-.288 3.219-11.996 4.654-26.034 5.741-15.716-.046-25.713-2.29-26-5.65m-.25-44.95c.402 3.066 10.484 5.706 26.25 5.4 14.298.475 25.81-2.397 26-5.65" stroke="#000" stroke-linecap="round" stroke-linejoin="round" stroke-width="2"/></g><g filter="url(#a)"><path d="M687.3 962h-77.6c-5.354 0-9.7-8.848-9.7-19.75s4.346-19.75 9.7-19.75h77.6c5.354 0 9.7 8.848 9.7 19.75S692.654 962 687.3 962" fill="#fff"/><path d="M687.784 961.998l-78.457.369c-5.345-.668-9.319-8.978-9.327-20.117-.738-11.965 4.809-19.566 9.7-19.75m-.298-.002l78.453.414c5.327-.513 10.081 9.392 9.145 19.338.35 10.036-3.877 19.702-9.7 19.75m-77.6 0c5.491-.346 9.126-8.163 9.7-19.75-.418-10.29-4.7-19.46-9.7-19.75m78.209 39.406l-77.8.387c-5.877-.844-9.851-9.154-9.859-20.293-.738-11.965 4.809-19.566 9.7-19.75m-.423.061l77.462.44c6.443-.602 11.197 9.303 10.261 19.249.35 10.036-3.877 19.702-9.7 19.75m-77.85.25c5.741-.596 9.376-8.413 9.95-20-.418-10.29-4.7-19.46-9.7-19.75" stroke="#000" stroke-linecap="round" stroke-linejoin="round" stroke-width="2"/></g><g filter="url(#a)"><circle cx="988.204" cy="942.25" r="19.75" fill="#fff"/><path d="M1002.169 928.285c7.203 8.11 7.201 19.408 0 27.93-7.725 7.272-20.96 8.194-27.93 0-8.782-8.6-7.098-19.364 0-27.93 7.784-6.867 19.76-7.9 27.93 0m0 0c7.453 7.86 7.451 19.158.25 27.68-7.725 7.272-20.96 8.194-27.93 0-8.782-8.6-7.098-19.364 0-27.93 7.784-6.867 19.76-7.9 27.93 0" stroke="#000" stroke-linecap="round" stroke-linejoin="round" stroke-width="2"/></g><g filter="url(#a)"><path d="M1311.449 1003.478c0-11.322-11.273-20.478-25.204-20.478-13.931 0-25.203 9.156-25.203 20.478 0 9.648 8.27 17.77 19.37 19.887-.91 3.643-2.412 7.926-4.775 10.042 4.553 0 9.058-5.02 12.134-9.5 13.217-.64 23.678-9.55 23.678-20.43z" fill="#fff"/><path d="M1311.449 1003.478c-1.114-12.248-10.598-21.703-25.204-20.478-14.012.64-25.994 10.206-25.203 20.478.508 9.331 8.478 17.387 19.37 19.887-1.036 3.64-2.473 7.715-4.775 10.042 4.555-.143 9.095-4.912 12.134-9.5 14.413-1.915 24.107-10.564 23.678-20.43m0 0c-.864-12.497-10.348-21.952-24.954-20.727-14.012.64-25.994 10.206-25.203 20.478.508 9.331 8.478 17.387 19.37 19.887-1.036 3.64-2.473 7.715-4.775 10.042 4.555-.143 9.095-4.912 12.134-9.5 14.413-1.915 24.107-10.564 23.678-20.43" stroke="#000" stroke-linecap="round" stroke-linejoin="round" stroke-width="2"/></g><text transform="translate(762.79 914)" fill="#000"><tspan font-family="Roboto Mono" font-size="14" font-weight="400" x="0" y="13">consume(message)</tspan></text><path d="M1261.042 895.35v-45.2c0-3.119 11.648-5.65 26-5.65 14.351 0 26 2.531 26 5.65v45.2c0 3.119-11.649 5.65-26 5.65-14.352 0-26-2.531-26-5.65" fill="#fff"/><path d="M1261.04 895.638l.158-46.067c-.046-2.313 11.148-5.847 25.843-5.071 13.109-.769 25.896 2.516 26 5.65m-.002-.853l.124 46.146c-.375 3.035-12.083 4.47-26.121 5.557-15.716-.046-25.713-2.29-26-5.65m0-45.2c.152 3.316 10.234 5.956 26 5.65 14.298.475 25.81-2.397 26-5.65m-51.968 45.362l.165-45.419c.163-3.085 11.357-6.619 26.053-5.843 13.108-.769 25.895 2.516 26 5.65m-.11-.728l.144 45.837c-.288 3.219-11.996 4.654-26.034 5.741-15.716-.046-25.713-2.29-26-5.65m-.25-44.95c.402 3.066 10.484 5.706 26.25 5.4 14.298.475 25.81-2.397 26-5.65" stroke="#000" stroke-linecap="round" stroke-linejoin="round" stroke-width="2"/><path d="M687.3 962h-77.6c-5.354 0-9.7-8.848-9.7-19.75s4.346-19.75 9.7-19.75h77.6c5.354 0 9.7 8.848 9.7 19.75S692.654 962 687.3 962" fill="#fff"/><path d="M687.784 961.998l-78.457.369c-5.345-.668-9.319-8.978-9.327-20.117-.738-11.965 4.809-19.566 9.7-19.75m-.298-.002l78.453.414c5.327-.513 10.081 9.392 9.145 19.338.35 10.036-3.877 19.702-9.7 19.75m-77.6 0c5.491-.346 9.126-8.163 9.7-19.75-.418-10.29-4.7-19.46-9.7-19.75m78.209 39.406l-77.8.387c-5.877-.844-9.851-9.154-9.859-20.293-.738-11.965 4.809-19.566 9.7-19.75m-.423.061l77.462.44c6.443-.602 11.197 9.303 10.261 19.249.35 10.036-3.877 19.702-9.7 19.75m-77.85.25c5.741-.596 9.376-8.413 9.95-20-.418-10.29-4.7-19.46-9.7-19.75" stroke="#000" stroke-linecap="round" stroke-linejoin="round" stroke-width="2"/><text transform="translate(1261 819)" fill="#000"><tspan font-family="Roboto Condensed" font-size="14" font-weight="400" x="0" y="13">Database</tspan></text><circle cx="988.204" cy="942.25" r="19.75" fill="#fff"/><path d="M1002.169 928.285c7.203 8.11 7.201 19.408 0 27.93-7.725 7.272-20.96 8.194-27.93 0-8.782-8.6-7.098-19.364 0-27.93 7.784-6.867 19.76-7.9 27.93 0m0 0c7.453 7.86 7.451 19.158.25 27.68-7.725 7.272-20.96 8.194-27.93 0-8.782-8.6-7.098-19.364 0-27.93 7.784-6.867 19.76-7.9 27.93 0" stroke="#000" stroke-linecap="round" stroke-linejoin="round" stroke-width="2"/><text transform="translate(968 897)" fill="#000"><tspan font-family="Roboto Condensed" font-size="14" font-weight="400" x="0" y="13">Service</tspan></text><text transform="translate(605 897)" fill="#000"><tspan font-family="Roboto Condensed" font-size="14" font-weight="400" x="0" y="13">Message queue</tspan></text><path d="M1311.449 1003.478c0-11.322-11.273-20.478-25.204-20.478-13.931 0-25.203 9.156-25.203 20.478 0 9.648 8.27 17.77 19.37 19.887-.91 3.643-2.412 7.926-4.775 10.042 4.553 0 9.058-5.02 12.134-9.5 13.217-.64 23.678-9.55 23.678-20.43z" fill="#fff"/><path d="M1311.449 1003.478c-1.114-12.248-10.598-21.703-25.204-20.478-14.012.64-25.994 10.206-25.203 20.478.508 9.331 8.478 17.387 19.37 19.887-1.036 3.64-2.473 7.715-4.775 10.042 4.555-.143 9.095-4.912 12.134-9.5 14.413-1.915 24.107-10.564 23.678-20.43m0 0c-.864-12.497-10.348-21.952-24.954-20.727-14.012.64-25.994 10.206-25.203 20.478.508 9.331 8.478 17.387 19.37 19.887-1.036 3.64-2.473 7.715-4.775 10.042 4.555-.143 9.095-4.912 12.134-9.5 14.413-1.915 24.107-10.564 23.678-20.43" stroke="#000" stroke-linecap="round" stroke-linejoin="round" stroke-width="2"/><text transform="translate(1274.501 958.74)" fill="#000"><tspan font-family="Roboto Condensed" font-size="14" font-weight="400" x="0" y="13">SMS</tspan></text><path d="M697.99 941.296c78.145-.57 128.314 6.723 215.053-1.079 17.462-1.137 30.44-.424 41.562.346m-256.616.733c78.646-1.07 128.815 6.223 215.554-1.579 17.462-1.137 30.44-.424 41.562.346m51.227-7.919c21.089-12.149 60.831-28.336 99.581-40.144 66.016-20.758 68.577-8.153 118.478-17 8.504-1.45 15.983-.958 22.77-2.083m-240.829 59.227c21.589-12.649 61.331-28.836 100.081-40.644 66.016-20.758 68.577-8.153 118.478-17 8.504-1.45 15.983-.958 22.77-2.083m-242.501 81.798c14.584 10.087 40.669 23.532 75.753 28.785 64.653 16.388 76.65 4.931 139.13 12.652 10.253 2.014 19.35 2.133 27.383 3.759m-242.265-45.196c15.083 9.587 41.168 23.032 76.252 28.285 64.653 16.388 76.65 4.931 139.13 12.652 10.253 2.014 19.35 2.133 27.383 3.759" marker-end="url(#b)" stroke="#000" stroke-linecap="round" stroke-linejoin="round" stroke-width="2"/><text transform="translate(1074 855)" fill="#000"><tspan font-family="Roboto Mono" font-size="14" font-weight="400" x="0" y="13">persist(data)</tspan></text><text transform="translate(1074 1051)" fill="#000"><tspan font-family="Roboto Mono" font-size="14" font-weight="400" x="0" y="13">send(text)</tspan></text><path fill="#5e5e5e" d="M764 880h30.838v29H764z"/><text transform="translate(769 885)" fill="#fff"><tspan font-family="Roboto Condensed" font-size="16" font-weight="400" x="2.087" y="15">#1</tspan></text><path fill="#5e5e5e" d="M1075 821h30.838v29H1075z"/><text transform="translate(1080 826)" fill="#fff"><tspan font-family="Roboto Condensed" font-size="16" font-weight="400" x="2.087" y="15">#2</tspan></text><path fill="#5e5e5e" d="M1076.087 1017h30.838v29h-30.838z"/><text transform="translate(1081.087 1022)" fill="#fff"><tspan font-family="Roboto Condensed" font-size="16" font-weight="400" x="2.087" y="15">#3</tspan></text><text transform="rotate(-15 3726.991 -2585.318)" fill="#521b93"><tspan font-family="Roboto Condensed" font-size="16" font-weight="400" x="0" y="15">async</tspan></text><text transform="rotate(-15 3651.46 -3801.81)" fill="#521b93"><tspan font-family="Roboto Condensed" font-size="16" font-weight="400" x="0" y="15">async</tspan></text><text transform="rotate(-15 4385.322 -3708.658)" fill="#521b93"><tspan font-family="Roboto Condensed" font-size="16" font-weight="400" x="0" y="15">async</tspan></text></g></svg>